<svg width="1440" height="756" viewBox="0 0 1440 756" fill="none" xmlns="http://www.w3.org/2000/svg">
<path d="M720 755V1M720 755H810M720 755H630M720 1H810M720 1H630M810 755H900M810 755V378V1M630 755H540M630 755V1M810 1H900M630 1H540M0 378H1440M0 378V283.75M0 378V472.25M1440 378V283.75M1440 378V472.25M0 283.75V189.5M0 283.75H1440M0 472.25V566.5M0 472.25H1440M1440 283.75V189.5M1440 472.25V566.5M1440 189.5H0M1440 189.5V95.25M0 189.5V95.25M1440 95.25H0M1440 95.25V1H1350M0 95.25V1H90M360 1V755M360 1H450M360 1H270M360 755H450M360 755H270M450 1H540M450 1V755M270 1H180M270 1V755M450 755H540M270 755H180M0 566.5H1440M0 566.5V660.75M1440 566.5V660.75M0 660.75V755H90M0 660.75H1440M1440 660.75V755H1350M1080 755V1M1080 755H1170M1080 755H990M1080 1H1170M1080 1H990M1170 755H1260M1170 755V1M990 755H900M990 755V1M1170 1H1260M990 1H900M1260 1V755M1260 1H1350M1260 755H1350M1350 1V755M900 755V1M540 1V755M180 755V1M180 755H90M180 1H90M90 755V1" stroke="url(#paint0_linear_33_45)"/>
<defs>
<linearGradient id="paint0_linear_33_45" x1="-169.5" y1="378" x2="1519.5" y2="369.651" gradientUnits="userSpaceOnUse">
<stop stop-color="white" stop-opacity="0.11"/>
<stop offset="0.255" stop-color="white" stop-opacity="0"/>
<stop offset="0.78" stop-color="white" stop-opacity="0"/>
<stop offset="1" stop-color="white" stop-opacity="0.11"/>
</linearGradient>
</defs>
</svg>
