<!-- Animated using SVGANIMA - https://svganima.com -->
<svg width="1213" height="463" viewBox="0 0 1213 463" fill="none" xmlns="http://www.w3.org/2000/svg" id="svg5005" preserveAspectRatio="xMidYMid">
<g filter="url(#filter0_d_33_15)" id="g5465" transform="matrix(1 0 0 1 -1 1)">
<path d="M 10 257 C 10 258.657 8.65685 260 7 260 C 5.34315 260 4 258.657 4 257 C 4 255.343 5.34315 254 7 254 C 8.65685 254 10 255.343 10 257 Z" fill="#D9D9D9" id="path439"><animateTransform attributeName="transform" attributeType="auto" type="translate" values="0 0;18.5 -26.41;0 0" calcMode="spline" keyTimes="0; 0.5; 1" keySplines=".25 0 .75 1;.25 0 .75 1" dur="10s" begin="0s" repeatCount="indefinite" additive="sum" accumulate="none" fill="freeze" id="animateTransform7001"></animateTransform><animate attributeType="auto" attributeName="opacity" values="1;0.4;1;1" calcMode="spline" keyTimes="0; 0.1; 0.2; 1" keySplines="0 0 1 1;0 0 1 1;0 0 1 1" dur="10s" begin="0s" repeatCount="indefinite" additive="replace" accumulate="none" fill="freeze" id="animate1475"></animate></path>
<path d="M 879 195 C 879 196.657 877.657 198 876 198 C 874.343 198 873 196.657 873 195 C 873 193.343 874.343 192 876 192 C 877.657 192 879 193.343 879 195 Z" fill="#D9D9D9" id="path7555"><animateTransform attributeName="transform" attributeType="auto" type="translate" values="0 0;9 32.67;0 0" calcMode="spline" keyTimes="0; 0.5; 1" keySplines=".25 0 .75 1;.25 0 .75 1" dur="10s" begin="0s" repeatCount="indefinite" additive="sum" accumulate="none" fill="freeze" id="animateTransform9517"></animateTransform><animate attributeType="auto" attributeName="opacity" values="1;1;0.4;1;1" calcMode="spline" keyTimes="0;0.59;0.6599999999999998;0.73;1" keySplines="0 0 1 1;0 0 1 1;0 0 1 1;0 0 1 1" dur="10s" begin="0s" repeatCount="1" additive="replace" accumulate="none" fill="freeze" id="animate9591"></animate></path>
<path d="M 398 7 C 398 8.65685 396.657 10 395 10 C 393.343 10 392 8.65685 392 7 C 392 5.34315 393.343 4 395 4 C 396.657 4 398 5.34315 398 7 Z" fill="#D9D9D9" id="path7044"><animateTransform attributeName="transform" attributeType="auto" type="translate" values="0 0;37.74 6.69;0 0" calcMode="spline" keyTimes="0; 0.5; 1" keySplines=".25 0 .75 1;.25 0 .75 1" dur="10s" begin="0s" repeatCount="indefinite" additive="sum" accumulate="none" fill="freeze" id="animateTransform5424"></animateTransform></path>
<path d="M 1191 88 C 1191 89.6569 1189.66 91 1188 91 C 1186.34 91 1185 89.6569 1185 88 C 1185 86.3431 1186.34 85 1188 85 C 1189.66 85 1191 86.3431 1191 88 Z" fill="#D9D9D9" id="path3869"><animateTransform attributeName="transform" attributeType="auto" type="translate" values="0 0;-2 26.62;0 0" calcMode="spline" keyTimes="0; 0.5; 1" keySplines=".25 0 .75 1;.25 0 .75 1" dur="10s" begin="0s" repeatCount="indefinite" additive="sum" accumulate="none" fill="freeze" id="animateTransform5831"></animateTransform><animate attributeType="auto" attributeName="opacity" values="1;1;0.4;1;1" calcMode="spline" keyTimes="0;0.62;0.73;0.8699999999999999;1" keySplines="0 0 1 1;0 0 1 1;0 0 1 1;0 0 1 1" dur="10s" begin="0s" repeatCount="indefinite" additive="replace" accumulate="none" fill="freeze" id="animate8964"></animate></path>
<path d="M 815 52.5 C 815 53.3284 814.328 54 813.5 54 C 812.672 54 812 53.3284 812 52.5 C 812 51.6716 812.672 51 813.5 51 C 814.328 51 815 51.6716 815 52.5 Z" fill="#D9D9D9" id="path2492"><animateTransform attributeName="transform" attributeType="auto" type="translate" values="0 0;29.67 2.85;0 0" calcMode="spline" keyTimes="0; 0.5; 1" keySplines=".25 0 .75 1;.25 0 .75 1" dur="10s" begin="0s" repeatCount="indefinite" additive="sum" accumulate="none" fill="freeze" id="animateTransform789"></animateTransform></path>
<path d="M 1084 162.5 C 1084 163.328 1083.33 164 1082.5 164 C 1081.67 164 1081 163.328 1081 162.5 C 1081 161.672 1081.67 161 1082.5 161 C 1083.33 161 1084 161.672 1084 162.5 Z" fill="#D9D9D9" id="path5723"><animateTransform attributeName="transform" attributeType="auto" type="translate" values="0 0;-2.6 19.85;0 0" calcMode="spline" keyTimes="0; 0.5; 1" keySplines=".25 0 .75 1;.25 0 .75 1" dur="10s" begin="0s" repeatCount="indefinite" additive="sum" accumulate="none" fill="freeze" id="animateTransform1228"></animateTransform><animate attributeType="auto" attributeName="opacity" values="1;1;0.4;1;1" calcMode="spline" keyTimes="0; 0.1; 0.2; 0.3; 1" keySplines="0 0 1 1;0 0 1 1;0 0 1 1;0 0 1 1" dur="10s" begin="0s" repeatCount="indefinite" additive="replace" accumulate="none" fill="freeze" id="animate9538"></animate></path>
<path d="M 172 403.5 C 172 404.328 171.328 405 170.5 405 C 169.672 405 169 404.328 169 403.5 C 169 402.672 169.672 402 170.5 402 C 171.328 402 172 402.672 172 403.5 Z" fill="#D9D9D9" id="path7709"><animateTransform attributeName="transform" attributeType="auto" type="translate" values="0 0;-30.58 -21.23;0 0" calcMode="spline" keyTimes="0; 0.5; 1" keySplines=".25 0 .75 1;.25 0 .75 1" dur="10s" begin="0s" repeatCount="indefinite" additive="sum" accumulate="none" fill="freeze" id="animateTransform9448"></animateTransform></path>



<path d="M 771 383 C 771 384.657 769.657 386 768 386 C 766.343 386 765 384.657 765 383 C 765 381.343 766.343 380 768 380 C 769.657 380 771 381.343 771 383 Z" fill="#D9D9D9" id="path1674"><animateTransform attributeName="transform" attributeType="auto" type="translate" values="0 0;-50.02 -6.33;0 0" calcMode="spline" keyTimes="0; 0.5; 1" keySplines=".25 0 .75 1;.25 0 .75 1" dur="10s" begin="0s" repeatCount="indefinite" additive="sum" accumulate="none" fill="freeze" id="animateTransform8152"></animateTransform></path>
<path d="M 395 347.5 C 395 348.328 394.328 349 393.5 349 C 392.672 349 392 348.328 392 347.5 C 392 346.672 392.672 346 393.5 346 C 394.328 346 395 346.672 395 347.5 Z" fill="#D9D9D9" id="path9730"><animateTransform attributeName="transform" attributeType="auto" type="translate" values="0 0;-25.81 -12.76;0 0" calcMode="spline" keyTimes="0; 0.5; 1" keySplines=".25 0 .75 1;.25 0 .75 1" dur="10s" begin="0s" repeatCount="indefinite" additive="sum" accumulate="none" fill="freeze" id="animateTransform6550"></animateTransform></path>
<path d="M 664 457.5 C 664 458.328 663.328 459 662.5 459 C 661.672 459 661 458.328 661 457.5 C 661 456.672 661.672 456 662.5 456 C 663.328 456 664 456.672 664 457.5 Z" fill="#D9D9D9" id="path9664"><animateTransform attributeName="transform" attributeType="auto" type="translate" values="0 0;-33.88 -7.5;0 0" calcMode="spline" keyTimes="0; 0.5; 1" keySplines=".25 0 .75 1;.25 0 .75 1" dur="10s" begin="0s" repeatCount="indefinite" additive="sum" accumulate="none" fill="freeze" id="animateTransform4488"></animateTransform><animate attributeType="auto" attributeName="opacity" values="1;1;0.3;1;1" calcMode="spline" keyTimes="0; 0.25; 0.3; 0.35; 1" keySplines="0 0 1 1;0 0 1 1;0 0 1 1;0 0 1 1" dur="10s" begin="0s" repeatCount="indefinite" additive="replace" accumulate="none" fill="freeze" id="animate3889"></animate></path>

<path d="M 54 74.5 C 54 75.3284 53.3284 76 52.5 76 C 51.6716 76 51 75.3284 51 74.5 C 51 73.6716 51.6716 73 52.5 73 C 53.3284 73 54 73.6716 54 74.5 Z" fill="#D9D9D9" id="path5321"><animateTransform attributeName="transform" attributeType="auto" type="translate" values="0 0;24.89 -11.18;0 0" calcMode="spline" keyTimes="0; 0.5; 1" keySplines=".25 0 .75 1;.25 0 .75 1" dur="10s" begin="0s" repeatCount="indefinite" additive="sum" accumulate="none" fill="freeze" id="animateTransform2522"></animateTransform></path>
<path d="M 1209 335.5 C 1209 336.328 1208.33 337 1207.5 337 C 1206.67 337 1206 336.328 1206 335.5 C 1206 334.672 1206.67 334 1207.5 334 C 1208.33 334 1209 334.672 1209 335.5 Z" fill="#D9D9D9" id="path1513"><animateTransform attributeName="transform" attributeType="auto" type="translate" values="0 0;-13.91 25.05;0 0" calcMode="spline" keyTimes="0; 0.5; 1" keySplines=".25 0 .75 1;.25 0 .75 1" dur="10s" begin="0s" repeatCount="indefinite" additive="sum" accumulate="none" fill="freeze" id="animateTransform6114"></animateTransform></path>
</g>
<defs id="defs7908">
<filter id="filter0_d_33_15" x="0" y="0" width="1213" height="463" filterUnits="userSpaceOnUse" color-interpolation-filters="sRGB">
<feFlood flood-opacity="0" result="BackgroundImageFix" id="feFlood4954"></feFlood>
<feColorMatrix in="SourceAlpha" type="matrix" values="0 0 0 0 0 0 0 0 0 0 0 0 0 0 0 0 0 0 127 0" result="hardAlpha" id="feColorMatrix1405"></feColorMatrix>
<feOffset id="feOffset2830"></feOffset>
<feGaussianBlur stdDeviation="2" id="feGaussianBlur5208"></feGaussianBlur>
<feComposite in2="hardAlpha" operator="out" id="feComposite1864"></feComposite>
<feColorMatrix type="matrix" values="0 0 0 0 0.364182 0 0 0 0 0.252904 0 0 0 0 0.451614 0 0 0 1 0" id="feColorMatrix9074"></feColorMatrix>
<feBlend mode="normal" in2="BackgroundImageFix" result="effect1_dropShadow_33_15" id="feBlend7484"></feBlend>
<feBlend mode="normal" in="SourceGraphic" in2="effect1_dropShadow_33_15" result="shape" id="feBlend4071"></feBlend>
</filter>
</defs>
</svg>