<svg width="23" height="23" viewBox="0 0 23 23" fill="none" xmlns="http://www.w3.org/2000/svg">
<g clip-path="url(#clip0_33_110)">
<path d="M11.5001 2.22244C14.5218 2.22244 14.8797 2.23399 16.0732 2.28843C17.1765 2.33879 17.7757 2.52311 18.1745 2.67809C18.6661 2.8595 19.1107 3.14878 19.4757 3.52464C19.8516 3.88967 20.1409 4.33431 20.3223 4.82585C20.4773 5.22462 20.6616 5.82383 20.7119 6.9272C20.7664 8.12055 20.7779 8.47844 20.7779 11.5002C20.7779 14.5221 20.7664 14.8799 20.7119 16.0733C20.6616 17.1767 20.4772 17.7758 20.3223 18.1747C20.134 18.6627 19.8456 19.106 19.4757 19.4759C19.1058 19.8458 18.6626 20.1341 18.1745 20.3224C17.7757 20.4774 17.1765 20.6618 16.0732 20.7121C14.88 20.7665 14.5221 20.7781 11.5001 20.7781C8.47808 20.7781 8.12033 20.7665 6.92707 20.7121C5.8237 20.6617 5.22453 20.4773 4.82571 20.3224C4.33417 20.141 3.88954 19.8517 3.5245 19.4759C3.14864 19.1108 2.85937 18.6662 2.67795 18.1747C2.52297 17.7759 2.33861 17.1767 2.2883 16.0733C2.23385 14.88 2.22231 14.5221 2.22231 11.5002C2.22231 8.47844 2.23385 8.12064 2.2883 6.9272C2.33866 5.82383 2.52297 5.22466 2.67795 4.82585C2.85939 4.33428 3.14869 3.88963 3.52459 3.52459C3.88963 3.14873 4.33426 2.85946 4.8258 2.67804C5.22457 2.52306 5.82379 2.3387 6.92716 2.28839C8.12051 2.23394 8.4784 2.2224 11.5002 2.2224M11.5002 0.18335C8.42674 0.18335 8.04122 0.196377 6.83435 0.251451C5.62977 0.306436 4.80716 0.497713 4.08733 0.777486C3.33222 1.06165 2.64818 1.5071 2.08292 2.08278C1.5071 2.64801 1.06153 3.33205 0.777262 4.0872C0.497713 4.80707 0.306436 5.62968 0.251676 6.83426C0.196377 8.04113 0.18335 8.42665 0.18335 11.5001C0.18335 14.5736 0.196377 14.9591 0.251676 16.166C0.30666 17.3706 0.497937 18.1932 0.777711 18.913C1.06187 19.6681 1.50732 20.3521 2.08301 20.9174C2.64827 21.4931 3.33231 21.9385 4.08742 22.2227C4.80729 22.5025 5.6299 22.6937 6.83444 22.7487C8.04149 22.8038 8.42687 22.8168 11.5003 22.8168C14.5737 22.8168 14.9593 22.8038 16.1661 22.7487C17.3707 22.6937 18.1933 22.5025 18.9132 22.2227C19.6649 21.9319 20.3476 21.4874 20.9176 20.9174C21.4875 20.3475 21.9321 19.6647 22.2229 18.913C22.5026 18.1931 22.6939 17.3705 22.7489 16.166C22.804 14.9589 22.817 14.5735 22.817 11.5001C22.817 8.42669 22.804 8.04113 22.7489 6.83426C22.6939 5.62968 22.5026 4.80707 22.2229 4.08724C21.9387 3.33213 21.4933 2.64809 20.9176 2.08283C20.3523 1.50703 19.6682 1.06148 18.913 0.777262C18.1932 0.497713 17.3705 0.306436 16.166 0.251676C14.9591 0.196377 14.5736 0.18335 11.5001 0.18335H11.5002Z" fill="url(#paint0_linear_33_110)"/>
<path d="M11.5 5.68872C10.3507 5.68872 9.22711 6.02955 8.27145 6.6681C7.31578 7.30666 6.57093 8.21426 6.13108 9.27614C5.69124 10.338 5.57616 11.5065 5.80039 12.6338C6.02462 13.7611 6.57809 14.7965 7.39082 15.6093C8.20355 16.422 9.23902 16.9755 10.3663 17.1997C11.4936 17.4239 12.6621 17.3088 13.7239 16.869C14.7858 16.4292 15.6934 15.6843 16.332 14.7286C16.9705 13.773 17.3114 12.6494 17.3114 11.5C17.3114 9.95878 16.6991 8.48065 15.6093 7.39082C14.5194 6.30098 13.0413 5.68872 11.5 5.68872ZM11.5 15.2723C10.754 15.2723 10.0247 15.051 9.40432 14.6365C8.78398 14.222 8.3005 13.6329 8.01499 12.9436C7.72949 12.2543 7.65479 11.4958 7.80035 10.7641C7.94591 10.0324 8.30518 9.36021 8.83274 8.83266C9.36029 8.30511 10.0324 7.94584 10.7642 7.80029C11.4959 7.65474 12.2544 7.72945 12.9437 8.01496C13.6329 8.30047 14.2221 8.78397 14.6366 9.40431C15.0511 10.0246 15.2723 10.754 15.2723 11.5C15.2723 12.5005 14.8749 13.46 14.1674 14.1674C13.46 14.8748 12.5005 15.2723 11.5 15.2723Z" fill="url(#paint1_linear_33_110)"/>
<path d="M17.5409 6.81705C18.2908 6.81705 18.8988 6.20906 18.8988 5.45906C18.8988 4.70907 18.2908 4.10107 17.5409 4.10107C16.7909 4.10107 16.1829 4.70907 16.1829 5.45906C16.1829 6.20906 16.7909 6.81705 17.5409 6.81705Z" fill="url(#paint2_linear_33_110)"/>
</g>
<defs>
<linearGradient id="paint0_linear_33_110" x1="11.5002" y1="0.18335" x2="11.5002" y2="22.8168" gradientUnits="userSpaceOnUse">
<stop stop-color="#D5A0FF"/>
<stop offset="1" stop-color="#FEFEFE"/>
</linearGradient>
<linearGradient id="paint1_linear_33_110" x1="11.5" y1="5.68872" x2="11.5" y2="17.3114" gradientUnits="userSpaceOnUse">
<stop stop-color="#D5A0FF"/>
<stop offset="1" stop-color="#FEFEFE"/>
</linearGradient>
<linearGradient id="paint2_linear_33_110" x1="17.5408" y1="4.10107" x2="17.5408" y2="6.81705" gradientUnits="userSpaceOnUse">
<stop stop-color="#D5A0FF"/>
<stop offset="1" stop-color="#FEFEFE"/>
</linearGradient>
<clipPath id="clip0_33_110">
<rect width="23" height="23" fill="white"/>
</clipPath>
</defs>
</svg>
