<svg width="43" height="43" viewBox="0 0 43 43" fill="none" xmlns="http://www.w3.org/2000/svg">
<path fill-rule="evenodd" clip-rule="evenodd" d="M21.4999 12.0938C21.4996 10.6246 21.8433 9.17577 22.5037 7.86337C23.164 6.55098 24.1226 5.41152 25.3027 4.53631C26.4827 3.66109 27.8513 3.07445 29.2989 2.8234C30.7464 2.57236 32.2327 2.66388 33.6385 3.09064C33.8607 3.15795 34.0616 3.28168 34.2218 3.44977C34.3819 3.61787 34.4958 3.82459 34.5523 4.04978C34.6088 4.27497 34.6059 4.51096 34.5441 4.73473C34.4822 4.9585 34.3634 5.16243 34.1993 5.32664L28.2509 11.2732C28.3638 12.1242 28.7454 12.9466 29.3994 13.6006C30.0534 14.2545 30.8757 14.6361 31.7286 14.7472L37.6733 8.80068C37.8375 8.63655 38.0414 8.51776 38.2652 8.45589C38.489 8.39403 38.725 8.3912 38.9502 8.44768C39.1754 8.50416 39.3821 8.61802 39.5502 8.77816C39.7183 8.93831 39.842 9.13927 39.9093 9.36147C40.3558 10.8322 40.4352 12.3899 40.1403 13.8983C39.8455 15.4068 39.1856 16.82 38.2182 18.0144C37.2508 19.2087 36.0055 20.1478 34.5912 20.7496C33.1769 21.3513 31.6367 21.5972 30.1053 21.466C28.2814 21.3119 26.7549 21.6451 25.9684 22.6019L13.1579 38.1625C12.6334 38.7963 11.9823 39.3136 11.2463 39.6813C10.5103 40.049 9.70565 40.2589 8.88385 40.2976C8.06204 40.3363 7.24121 40.203 6.4739 39.9062C5.70659 39.6094 5.00972 39.1556 4.42791 38.5739C3.8461 37.9922 3.39217 37.2955 3.09519 36.5282C2.79821 35.761 2.66472 34.9402 2.70327 34.1184C2.74182 33.2965 2.95156 32.4918 3.31906 31.7558C3.68657 31.0197 4.20373 30.3685 4.83744 29.8438L20.3963 17.0316C21.3512 16.2433 21.6863 14.7186 21.5322 12.8946C21.5103 12.6282 21.4995 12.3611 21.4999 12.0938ZM7.37623 34.2656C7.37623 33.9093 7.51781 33.5675 7.76981 33.3155C8.02181 33.0635 8.3636 32.9219 8.71998 32.9219H8.73432C9.0907 32.9219 9.43249 33.0635 9.68449 33.3155C9.93649 33.5675 10.0781 33.9093 10.0781 34.2656V34.28C10.0781 34.6364 9.93649 34.9781 9.68449 35.2301C9.43249 35.4821 9.0907 35.6237 8.73432 35.6237H8.71998C8.3636 35.6237 8.02181 35.4821 7.76981 35.2301C7.51781 34.9781 7.37623 34.6364 7.37623 34.28V34.2656Z" fill="url(#paint0_linear_21_969)"/>
<defs>
<linearGradient id="paint0_linear_21_969" x1="21.5059" y1="2.68506" x2="21.5059" y2="40.3042" gradientUnits="userSpaceOnUse">
<stop stop-color="#D5A0FF"/>
<stop offset="1" stop-color="#FEFEFE"/>
</linearGradient>
</defs>
</svg>
