<svg width="43" height="43" viewBox="0 0 43 43" fill="none" xmlns="http://www.w3.org/2000/svg">
<path fill-rule="evenodd" clip-rule="evenodd" d="M26.1851 2.8577C26.4475 3.00371 26.6533 3.23338 26.7699 3.51005C26.8865 3.78673 26.9071 4.09447 26.8283 4.3842L23.2593 17.4687H36.2812C36.543 17.4688 36.7992 17.5453 37.0182 17.6889C37.2371 17.8326 37.4093 18.0371 37.5136 18.2773C37.6179 18.5175 37.6498 18.7829 37.6053 19.041C37.5607 19.299 37.4418 19.5385 37.263 19.7298L18.4505 39.8861C18.2456 40.1061 17.9728 40.251 17.6758 40.2977C17.3788 40.3444 17.0747 40.2901 16.8122 40.1436C16.5497 39.9971 16.3439 39.7667 16.2277 39.4894C16.1116 39.2121 16.0918 38.9039 16.1715 38.614L19.7405 25.5312H6.71867C6.45679 25.5312 6.20063 25.4547 5.98167 25.311C5.76271 25.1674 5.59049 24.9629 5.48619 24.7227C5.38189 24.4825 5.35004 24.2171 5.39457 23.959C5.4391 23.7009 5.55806 23.4615 5.73683 23.2702L24.5493 3.11391C24.7542 2.89469 25.0266 2.75036 25.3231 2.70393C25.6195 2.6575 25.923 2.71163 26.1851 2.8577Z" fill="url(#paint0_linear_21_967)"/>
<defs>
<linearGradient id="paint0_linear_21_967" x1="21.4999" y1="2.68774" x2="21.4999" y2="40.314" gradientUnits="userSpaceOnUse">
<stop stop-color="#D5A0FF"/>
<stop offset="1" stop-color="#FEFEFE"/>
</linearGradient>
</defs>
</svg>
