<svg width="43" height="43" viewBox="0 0 43 43" fill="none" xmlns="http://www.w3.org/2000/svg">
<path fill-rule="evenodd" clip-rule="evenodd" d="M22.4245 3.88792C22.1749 3.65126 21.844 3.51935 21.5 3.51935C21.156 3.51935 20.8251 3.65126 20.5755 3.88792C16.7723 7.49971 11.707 9.4803 6.46255 9.40626C6.17684 9.40254 5.89739 9.49 5.66477 9.65593C5.43215 9.82186 5.25848 10.0576 5.16897 10.329C4.41284 12.6333 4.02879 15.0435 4.03126 17.4688C4.03126 28.1148 11.3126 37.057 21.165 39.5923C21.3847 39.6489 21.6153 39.6489 21.8351 39.5923C31.6874 37.057 38.9688 28.1148 38.9688 17.4688C38.9688 14.9783 38.5692 12.5775 37.8311 10.329C37.7419 10.0573 37.5683 9.82113 37.3357 9.65486C37.103 9.48859 36.8234 9.40088 36.5375 9.40447L36.2813 9.40626C30.9134 9.40626 26.0383 7.31001 22.4245 3.88792ZM27.9679 18.2499C28.0754 18.1067 28.1532 17.9434 28.1967 17.7697C28.2402 17.5959 28.2485 17.4153 28.2212 17.2383C28.1939 17.0613 28.1314 16.8915 28.0375 16.739C27.9437 16.5865 27.8203 16.4543 27.6746 16.3501C27.5289 16.246 27.3638 16.172 27.1891 16.1326C27.0144 16.0931 26.8336 16.089 26.6573 16.1205C26.481 16.1519 26.3127 16.2183 26.1624 16.3157C26.0121 16.4131 25.8828 16.5395 25.7821 16.6876L19.9843 24.8038L17.0746 21.8942C16.8199 21.6568 16.483 21.5276 16.1348 21.5337C15.7867 21.5399 15.4546 21.6809 15.2084 21.9271C14.9622 22.1733 14.8211 22.5054 14.815 22.8536C14.8088 23.2017 14.9381 23.5386 15.1754 23.7933L19.2067 27.8246C19.3446 27.9624 19.5109 28.0686 19.694 28.1357C19.8771 28.2028 20.0726 28.2293 20.2669 28.2133C20.4613 28.1972 20.6498 28.1391 20.8194 28.0429C20.989 27.9467 21.1357 27.8147 21.2492 27.6562L27.9679 18.2499Z" fill="url(#paint0_linear_21_965)"/>
<defs>
<linearGradient id="paint0_linear_21_965" x1="21.5" y1="3.51935" x2="21.5" y2="39.6348" gradientUnits="userSpaceOnUse">
<stop stop-color="#D5A0FF"/>
<stop offset="1" stop-color="#FEFEFE"/>
</linearGradient>
</defs>
</svg>
