<svg width="43" height="43" viewBox="0 0 43 43" fill="none" xmlns="http://www.w3.org/2000/svg">
<path d="M8.0625 11.4219C8.0625 9.46176 8.84115 7.58192 10.2272 6.19591C11.6132 4.8099 13.493 4.03125 15.4531 4.03125C17.4132 4.03125 19.2931 4.8099 20.6791 6.19591C22.0651 7.58192 22.8438 9.46176 22.8438 11.4219C22.8438 13.382 22.0651 15.2618 20.6791 16.6478C19.2931 18.0338 17.4132 18.8125 15.4531 18.8125C13.493 18.8125 11.6132 18.0338 10.2272 16.6478C8.84115 15.2618 8.0625 13.382 8.0625 11.4219ZM25.5312 15.4531C25.5312 14.659 25.6877 13.8727 25.9915 13.1391C26.2954 12.4054 26.7408 11.7388 27.3023 11.1773C27.8638 10.6158 28.5304 10.1704 29.2641 9.86654C29.9977 9.56266 30.784 9.40625 31.5781 9.40625C32.3722 9.40625 33.1585 9.56266 33.8922 9.86654C34.6258 10.1704 35.2924 10.6158 35.8539 11.1773C36.4154 11.7388 36.8608 12.4054 37.1647 13.1391C37.4686 13.8727 37.625 14.659 37.625 15.4531C37.625 17.0569 36.9879 18.5949 35.8539 19.7289C34.7199 20.8629 33.1819 21.5 31.5781 21.5C29.9744 21.5 28.4363 20.8629 27.3023 19.7289C26.1683 18.5949 25.5312 17.0569 25.5312 15.4531ZM2.6875 34.2656C2.6875 30.88 4.03245 27.633 6.42647 25.239C8.82048 22.8449 12.0675 21.5 15.4531 21.5C18.8388 21.5 22.0858 22.8449 24.4798 25.239C26.8738 27.633 28.2188 30.88 28.2188 34.2656V34.271L28.217 34.4842C28.2132 34.7121 28.1515 34.9352 28.0377 35.1327C27.9239 35.3301 27.7618 35.4954 27.5666 35.613C23.9102 37.8149 19.7214 38.9753 15.4531 38.9688C11.0241 38.9688 6.87821 37.7433 3.34146 35.613C3.1459 35.4956 2.98342 35.3304 2.86933 35.133C2.75524 34.9355 2.69328 34.7122 2.68929 34.4842L2.6875 34.2656ZM30.9062 34.271L30.9045 34.529C30.8944 35.1262 30.7519 35.7137 30.487 36.249C33.6147 36.4419 36.7389 35.8183 39.5528 34.4394C39.7705 34.333 39.9553 34.1698 40.0877 33.967C40.2202 33.7642 40.2954 33.5294 40.3053 33.2874C40.3686 31.7846 40.0427 30.2909 39.3592 28.9511C38.6757 27.6112 37.6578 26.4706 36.4041 25.6396C35.1503 24.8087 33.7033 24.3156 32.203 24.2081C30.7027 24.1006 29.2001 24.3823 27.8407 25.026C29.8352 27.693 30.9103 30.9353 30.9045 34.2656L30.9062 34.271Z" fill="url(#paint0_linear_20_916)"/>
<defs>
<linearGradient id="paint0_linear_20_916" x1="21.5003" y1="4.03125" x2="21.5003" y2="38.9688" gradientUnits="userSpaceOnUse">
<stop offset="1" stop-color="#EFDAFF"/>
<stop stop-color="#D5A0FF"/>
</linearGradient>
</defs>
</svg>
