<svg width="46" height="46" viewBox="0 0 46 46" fill="none" xmlns="http://www.w3.org/2000/svg">
<path fill-rule="evenodd" clip-rule="evenodd" d="M8.62507 18.6876C8.62372 16.0135 9.5543 13.4225 11.2567 11.3604C12.9592 9.29827 15.327 7.89387 17.9529 7.38878C20.5789 6.8837 23.2987 7.30951 25.6447 8.59297C27.9906 9.87643 29.8159 11.9373 30.8067 14.4211C31.9062 14.2948 33.0201 14.4242 34.0614 14.7992C35.1028 15.1741 36.0435 15.7845 36.8102 16.5828C37.5769 17.381 38.1489 18.3455 38.4816 19.4011C38.8143 20.4567 38.8987 21.5749 38.7282 22.6685C40.3911 23.603 41.6973 25.0623 42.4425 26.8182C43.1876 28.5741 43.3297 30.5275 42.8464 32.3728C42.3632 34.218 41.2818 35.851 39.7716 37.0162C38.2614 38.1814 36.4075 38.8132 34.5001 38.8126H12.9376C10.6484 38.8136 8.42733 38.0341 6.6409 36.6028C4.85446 35.1714 3.60948 33.1737 3.11142 30.9394C2.61337 28.7051 2.89203 26.3677 3.9014 24.3131C4.91077 22.2585 6.59053 20.6095 8.6634 19.6382C8.63767 19.322 8.62488 19.0048 8.62507 18.6876Z" fill="url(#paint0_linear_20_897)"/>
<defs>
<linearGradient id="paint0_linear_20_897" x1="22.9991" y1="7.18176" x2="22.9991" y2="38.8126" gradientUnits="userSpaceOnUse">
<stop stop-color="#CC9AF2"/>
<stop offset="1" stop-color="#EDD6FF"/>
</linearGradient>
</defs>
</svg>
